<svg xmlns="http://www.w3.org/2000/svg" fill="none" viewBox="0 0 129 48">
  <path fill="#fff" d="M57.8 15.9c-2.2-.2-3.2.7-3.2 2.7v.4h3.2v2h-3.2v10h-2.1V21h-2v-2h2v-.4c0-1.6.4-2.8 1.3-3.6 1-.9 2.3-1.2 4-1.1v2ZM68.6 19h2.1v12h-2v-2a5 5 0 0 1-4.6 2.3c-1.7 0-3.1-.6-4.3-1.8A6.2 6.2 0 0 1 58 25c0-1.8.6-3.2 1.8-4.5a5.7 5.7 0 0 1 4.3-1.8c2 0 3.5.8 4.5 2.4V19Zm-4.3 10.3c1.3 0 2.3-.4 3.1-1.2.8-.9 1.2-1.9 1.2-3.1 0-1.2-.4-2.2-1.2-3a4.1 4.1 0 0 0-3-1.3 4 4 0 0 0-3 1.3c-.9.8-1.3 1.8-1.3 3s.4 2.2 1.2 3c.8.9 1.8 1.3 3 1.3Zm15.2 2a6.1 6.1 0 0 1-6.3-6.3 6 6 0 0 1 1.8-4.5 6 6 0 0 1 4.5-1.8 6 6 0 0 1 3.2.9c1 .5 1.7 1.3 2.1 2.2l-1.7 1c-.3-.6-.8-1.1-1.5-1.5a4 4 0 0 0-2-.6c-1.3 0-2.3.4-3.1 1.3-.8.8-1.2 1.8-1.2 3a4.2 4.2 0 0 0 4.2 4.2c.8 0 1.5-.1 2.2-.5.6-.4 1.1-.9 1.4-1.5l1.8 1a6 6 0 0 1-2.2 2.3c-1 .5-2 .8-3.2.8Zm14-10.3h-3.2v6.5c0 .6.1 1 .3 1.3.3.2.6.4 1.1.4h1.8V31c-1.8.2-3.2.1-4-.4-.9-.6-1.3-1.6-1.3-3V21h-2.4v-2h2.4v-2.7l2.1-.7V19h3.2v2Zm12 8.5a6.2 6.2 0 0 1-4.5 1.8c-1.8 0-3.3-.6-4.5-1.8a6.1 6.1 0 0 1-1.8-4.5 6.2 6.2 0 0 1 6.3-6.3c1.8 0 3.3.6 4.5 1.8a6 6 0 0 1 1.8 4.5 6 6 0 0 1-1.8 4.5Zm-4.5-.2c1.2 0 2.2-.4 3-1.3.8-.8 1.3-1.8 1.3-3s-.5-2.2-1.3-3a4.1 4.1 0 0 0-3-1.3 4 4 0 0 0-3 1.3c-.8.8-1.2 1.8-1.2 3s.4 2.2 1.2 3a4 4 0 0 0 3 1.3ZM112 21c.7-1.5 2-2.2 3.7-2.2V21c-1 0-1.9.2-2.6.8-.7.6-1.1 1.5-1.1 2.8V31h-2.1V19h2v2Zm14.4-2h2.2l-4.9 12.7a6.7 6.7 0 0 1-2.1 3.1c-1 .8-2 1-3.2 1v-2c1.5.2 2.6-.6 3.3-2.4l.2-.4-5.3-12h2.3l4 9.4 3.5-9.4Z"/>
  <rect width="9" height="9" x="16.5" y=".5" fill="#EBB715" stroke="#EBB715" rx="4.5"/>
  <rect width="9" height="9" x="16.5" y="38.5" fill="#EBB715" stroke="#EBB715" rx="4.5"/>
  <path fill="#fff" d="M7.8 15.2a5.6 5.6 0 0 1 5.8 5.6c0 1.6-.6 3-1.7 4a5.6 5.6 0 0 1-4 1.7h-3V32H1.6V15.2h6.2Zm0 8.2c.7 0 1.3-.3 1.8-.7.4-.5.7-1.1.7-1.9 0-.7-.3-1.3-.7-1.8-.5-.5-1-.7-1.8-.7h-3v5h3Zm27-8.2a5.6 5.6 0 0 1 5.7 5.6c0 1.6-.6 3-1.7 4a5.6 5.6 0 0 1-4 1.7h-3V32h-3.3V15.2h6.2Zm0 8.2c.6 0 1.2-.3 1.7-.7.4-.5.7-1.1.7-1.9 0-.7-.3-1.3-.7-1.8-.5-.5-1-.7-1.8-.7h-3v5h3Z"/>
  <path fill="#EBB715" d="M14.8 32v-2.5l5.7-5.9c1.3-1.3 2-2.4 2-3.3a2.1 2.1 0 0 0-2.2-2.2c-1.3 0-2.2.6-2.8 2l-2.8-1.7a5.9 5.9 0 0 1 5.5-3.5c1.5 0 2.9.4 4 1.4 1 1 1.6 2.2 1.6 3.8 0 1.8-1 3.6-2.8 5.4l-3.3 3.3H26V32H14.8Z"/>
</svg>
