<svg xmlns="http://www.w3.org/2000/svg" fill="none" viewBox="0 0 32 32">
  <g clip-path="url(#a)">
    <path fill="#fff" fill-rule="evenodd" d="M24.5 30.4c.4.3 1 .4 1.5.2s.8-.6 1-1.2l5-24.1c0-.4 0-.8-.4-1a1 1 0 0 0-1-.2L.7 15.2c-.4.2-.7.6-.7 1 0 .5.3 1 .8 1L8 19.6l3 8.9c0 .3.4.6.7.7.4.1.8 0 1.1-.2l4.1-4 7.5 5.5ZM9.8 18.8l2.3 7.4.5-4.7L26 9.3c.2-.2.2-.4 0-.5a.4.4 0 0 0-.4-.1L9.8 18.8Z" clip-rule="evenodd"/>
  </g>
  <defs>
    <clipPath id="a">
      <path fill="#fff" d="M0 0h32v32H0z"/>
    </clipPath>
  </defs>
</svg>
